<svg id="Layer_1" xmlns="http://www.w3.org/2000/svg" width="243" height="72" viewBox="0 0 243 72"><path fill="#a6a6a6" d="M234.72,72H8.66c-4.7,0-8.66-3.89-8.66-8.58V8.39C0,3.7,3.96,0,8.66,0h226.06c4.69,0,8.28,3.7,8.28,8.39v55.03c0,4.69-3.7,8.58-8.39,8.58h.12Z"/><path d="M241.63,63.42c0,3.81-3.09,6.9-6.91,6.9H8.66c-3.82,0-6.92-3.09-6.92-6.9V8.39c0-3.81,3.1-6.91,6.92-6.91h226.06c3.82,0,6.91,3.1,6.91,6.91v55.03h0Z"/><path fill="#ffffff" d="M54.42,35.52c-.05-5.81,4.75-8.63,4.97-8.76-2.72-3.97-6.94-4.51-8.42-4.55-3.54-.37-6.98,2.12-8.79,2.12s-4.62-2.08-7.62-2.02c-3.86.06-7.46,2.29-9.44,5.76-4.08,7.07-1.04,17.46,2.87,23.17,1.96,2.8,4.24,5.92,7.24,5.81,2.93-.12,4.02-1.87,7.56-1.87s4.53,1.87,7.58,1.8c3.14-.05,5.12-2.81,7.01-5.63,2.26-3.21,3.17-6.37,3.21-6.53-.07-.02-6.1-2.32-6.16-9.29Z"/><path fill="#ffffff" d="M48.66,18.44c1.57-1.97,2.65-4.65,2.35-7.37-2.28.1-5.13,1.58-6.77,3.5-1.45,1.7-2.75,4.48-2.41,7.1,2.56.19,5.19-1.29,6.83-3.23Z"/><path fill="#ffffff" d="M96.8,56.64h-4.09l-2.24-7.04h-7.79l-2.14,7.04h-3.98l7.72-23.98h4.77l7.76,23.98ZM89.79,46.64l-2.03-6.26c-.21-.64-.62-2.15-1.21-4.52h-.07c-.24,1.02-.62,2.53-1.14,4.52l-1.99,6.26h6.44Z"/><path fill="#ffffff" d="M116.65,47.78c0,2.94-.79,5.26-2.38,6.97-1.42,1.52-3.19,2.28-5.3,2.28-2.28,0-3.91-.82-4.91-2.45h-.07v9.11h-3.84v-18.64c0-1.85-.05-3.75-.14-5.69h3.38l.21,2.74h.07c1.28-2.06,3.23-3.1,5.83-3.1,2.04,0,3.74.81,5.11,2.42,1.36,1.62,2.05,3.74,2.05,6.37ZM112.73,47.92c0-1.68-.38-3.07-1.14-4.16-.83-1.14-1.95-1.71-3.34-1.71-.95,0-1.81.32-2.58.94-.77.63-1.28,1.45-1.51,2.47-.12.48-.18.87-.18,1.17v2.88c0,1.26.39,2.32,1.16,3.18.77.87,1.77,1.3,3.01,1.3,1.45,0,2.57-.56,3.38-1.67.81-1.12,1.21-2.59,1.21-4.41Z"/><path fill="#ffffff" d="M136.53,47.78c0,2.94-.8,5.26-2.39,6.97-1.42,1.52-3.19,2.28-5.3,2.28-2.28,0-3.91-.82-4.91-2.45h-.07v9.11h-3.84v-18.64c0-1.85-.05-3.75-.14-5.69h3.38l.21,2.74h.07c1.28-2.06,3.22-3.1,5.83-3.1,2.04,0,3.74.81,5.11,2.42,1.36,1.62,2.04,3.74,2.04,6.37ZM132.62,47.92c0-1.68-.38-3.07-1.14-4.16-.83-1.14-1.94-1.71-3.34-1.71-.95,0-1.81.32-2.58.94-.77.63-1.27,1.45-1.51,2.47-.12.48-.18.87-.18,1.17v2.88c0,1.26.39,2.32,1.15,3.18.77.87,1.77,1.3,3.01,1.3,1.45,0,2.57-.56,3.38-1.67.81-1.12,1.21-2.59,1.21-4.41Z"/><path fill="#ffffff" d="M158.77,49.91c0,2.04-.71,3.7-2.13,4.98-1.56,1.4-3.74,2.1-6.53,2.1-2.58,0-4.65-.5-6.21-1.49l.89-3.2c1.69,1.02,3.54,1.53,5.55,1.53,1.45,0,2.57-.33,3.38-.98.81-.65,1.21-1.53,1.21-2.62,0-.97-.33-1.79-1-2.46-.66-.67-1.77-1.28-3.31-1.85-4.2-1.57-6.3-3.86-6.3-6.88,0-1.97.74-3.59,2.21-4.85,1.47-1.26,3.42-1.89,5.87-1.89,2.18,0,3.99.38,5.44,1.14l-.96,3.13c-1.35-.73-2.88-1.1-4.59-1.1-1.35,0-2.41.33-3.16,1-.64.59-.96,1.32-.96,2.17,0,.95.37,1.73,1.1,2.35.64.57,1.8,1.19,3.49,1.85,2.06.83,3.58,1.8,4.55,2.92.97,1.12,1.46,2.5,1.46,4.16Z"/><path fill="#ffffff" d="M171.47,42.23h-4.23v8.39c0,2.13.75,3.2,2.24,3.2.69,0,1.26-.06,1.71-.18l.11,2.92c-.76.28-1.75.43-2.99.43-1.52,0-2.7-.46-3.56-1.39-.85-.93-1.28-2.48-1.28-4.66v-8.71h-2.52v-2.88h2.52v-3.17l3.77-1.14v4.3h4.23v2.88Z"/><path fill="#ffffff" d="M190.57,47.85c0,2.66-.76,4.84-2.28,6.55-1.59,1.76-3.7,2.63-6.33,2.63s-4.56-.84-6.06-2.52c-1.51-1.68-2.26-3.81-2.26-6.37s.77-4.87,2.33-6.58c1.55-1.71,3.65-2.56,6.28-2.56s4.58.84,6.12,2.53c1.47,1.64,2.21,3.75,2.21,6.33ZM186.58,47.98c0-1.59-.34-2.96-1.03-4.1-.81-1.38-1.96-2.07-3.45-2.07s-2.72.69-3.52,2.07c-.69,1.14-1.03,2.53-1.03,4.18s.34,2.96,1.03,4.1c.83,1.38,1.99,2.07,3.49,2.07s2.62-.7,3.45-2.1c.71-1.16,1.07-2.55,1.07-4.14Z"/><path fill="#ffffff" d="M203.06,42.73c-.38-.07-.78-.11-1.21-.11-1.35,0-2.4.51-3.13,1.53-.64.9-.96,2.04-.96,3.41v9.07h-3.84l.04-11.85c0-1.99-.05-3.81-.14-5.44h3.35l.14,3.31h.11c.4-1.14,1.05-2.05,1.92-2.74.86-.62,1.78-.93,2.78-.93.36,0,.68.02.96.07v3.66Z"/><path fill="#ffffff" d="M220.24,47.17c0,.69-.05,1.27-.14,1.74h-11.52c.05,1.71.6,3.01,1.67,3.91.97.81,2.23,1.21,3.77,1.21,1.71,0,3.26-.27,4.66-.82l.6,2.67c-1.64.71-3.57,1.07-5.8,1.07-2.68,0-4.79-.79-6.32-2.37-1.53-1.58-2.29-3.69-2.29-6.35s.71-4.78,2.14-6.51c1.49-1.85,3.51-2.77,6.05-2.77s4.38.92,5.66,2.77c1.02,1.47,1.53,3.29,1.53,5.44ZM216.57,46.18c.02-1.14-.23-2.12-.75-2.95-.67-1.07-1.69-1.6-3.06-1.6-1.26,0-2.28.52-3.06,1.57-.64.83-1.02,1.83-1.14,2.99h8Z"/><path fill="#ffffff" d="M88.52,17.91c0,2.12-.64,3.72-1.91,4.79-1.18.99-2.85,1.48-5.01,1.48-1.07,0-1.99-.05-2.76-.14v-11.59c1-.16,2.08-.24,3.25-.24,2.06,0,3.62.45,4.67,1.35,1.18,1.01,1.76,2.46,1.76,4.35ZM86.53,17.96c0-1.38-.36-2.43-1.09-3.16-.73-.73-1.79-1.1-3.19-1.1-.59,0-1.1.04-1.52.12v8.81c.23.04.66.05,1.28.05,1.44,0,2.56-.4,3.35-1.21.79-.8,1.18-1.98,1.18-3.51Z"/><path fill="#ffffff" d="M99.07,19.76c0,1.31-.37,2.38-1.12,3.22-.78.86-1.82,1.29-3.11,1.29s-2.24-.41-2.98-1.24c-.74-.83-1.11-1.87-1.11-3.13s.38-2.39,1.14-3.23c.76-.84,1.79-1.26,3.08-1.26s2.25.41,3.01,1.24c.72.8,1.08,1.84,1.08,3.11ZM97.11,19.82c0-.78-.17-1.46-.51-2.02-.4-.68-.96-1.02-1.69-1.02s-1.34.34-1.73,1.02c-.34.56-.51,1.24-.51,2.05s.17,1.46.51,2.02c.41.68.98,1.02,1.71,1.02s1.29-.34,1.69-1.03c.35-.57.52-1.25.52-2.03Z"/><path fill="#ffffff" d="M113.23,15.58l-2.66,8.49h-1.73l-1.1-3.69c-.28-.92-.51-1.84-.68-2.74h-.03c-.16.93-.39,1.85-.68,2.74l-1.17,3.69h-1.75l-2.5-8.49h1.94l.96,4.04c.23.96.42,1.86.58,2.73h.03c.14-.71.37-1.61.7-2.71l1.21-4.05h1.54l1.15,3.97c.28.97.51,1.9.68,2.8h.05c.13-.87.32-1.81.58-2.8l1.03-3.97h1.85Z"/><path fill="#ffffff" d="M123.02,24.08h-1.89v-4.86c0-1.5-.57-2.25-1.71-2.25-.56,0-1.01.21-1.36.62-.35.41-.52.9-.52,1.46v5.04h-1.89v-6.06c0-.75-.02-1.56-.07-2.43h1.66l.09,1.33h.05c.22-.41.55-.75.98-1.03.51-.32,1.08-.48,1.71-.48.79,0,1.45.26,1.98.77.65.63.98,1.57.98,2.81v5.09Z"/><path fill="#ffffff" d="M128.22,24.08h-1.89v-12.39h1.89v12.39Z"/><path fill="#ffffff" d="M139.34,19.76c0,1.31-.37,2.38-1.12,3.22-.78.86-1.82,1.29-3.11,1.29s-2.24-.41-2.98-1.24c-.74-.83-1.11-1.87-1.11-3.13s.38-2.39,1.14-3.23,1.79-1.26,3.08-1.26,2.25.41,3.01,1.24c.72.8,1.08,1.84,1.08,3.11ZM137.38,19.82c0-.78-.17-1.46-.51-2.02-.39-.68-.96-1.02-1.69-1.02s-1.34.34-1.73,1.02c-.34.56-.51,1.24-.51,2.05s.17,1.46.51,2.02c.41.68.98,1.02,1.71,1.02s1.28-.34,1.69-1.03c.35-.57.52-1.25.52-2.03Z"/><path fill="#ffffff" d="M148.48,24.08h-1.7l-.14-.98h-.05c-.58.78-1.41,1.17-2.48,1.17-.8,0-1.45-.26-1.94-.77-.44-.47-.67-1.04-.67-1.73,0-1.04.43-1.83,1.3-2.38.87-.55,2.09-.82,3.66-.8v-.16c0-1.12-.59-1.68-1.76-1.68-.84,0-1.58.21-2.21.63l-.38-1.24c.79-.49,1.76-.73,2.91-.73,2.22,0,3.33,1.17,3.33,3.51v3.13c0,.85.04,1.53.12,2.03ZM146.52,21.16v-1.31c-2.08-.04-3.12.54-3.12,1.71,0,.44.12.78.36,1,.24.22.55.33.92.33.42,0,.8-.13,1.15-.39.36-.26.57-.6.65-1,.02-.09.03-.2.03-.33Z"/><path fill="#ffffff" d="M159.21,24.08h-1.68l-.09-1.36h-.05c-.53,1.04-1.45,1.56-2.73,1.56-1.02,0-1.88-.4-2.55-1.21s-1.01-1.85-1.01-3.13c0-1.38.37-2.49,1.1-3.34.71-.79,1.58-1.19,2.62-1.19,1.14,0,1.94.38,2.39,1.15h.04v-4.88h1.89v10.1c0,.83.02,1.59.07,2.29ZM157.25,20.5v-1.42c0-.24-.02-.44-.05-.59-.11-.45-.33-.84-.68-1.14-.35-.31-.77-.46-1.26-.46-.7,0-1.26.28-1.66.84-.4.56-.61,1.28-.61,2.15s.19,1.52.58,2.05c.41.56.96.84,1.65.84.62,0,1.12-.23,1.49-.7.36-.43.54-.95.54-1.56Z"/><path fill="#ffffff" d="M175.36,19.76c0,1.31-.37,2.38-1.12,3.22-.78.86-1.82,1.29-3.11,1.29s-2.24-.41-2.98-1.24c-.74-.83-1.11-1.87-1.11-3.13s.38-2.39,1.14-3.23c.76-.84,1.79-1.26,3.09-1.26s2.25.41,3.01,1.24c.72.8,1.08,1.84,1.08,3.11ZM173.4,19.82c0-.78-.17-1.46-.51-2.02-.4-.68-.96-1.02-1.7-1.02s-1.33.34-1.73,1.02c-.34.56-.51,1.24-.51,2.05s.17,1.46.51,2.02c.41.68.98,1.02,1.71,1.02s1.29-.34,1.7-1.03c.35-.57.52-1.25.52-2.03Z"/><path fill="#ffffff" d="M185.51,24.08h-1.89v-4.86c0-1.5-.57-2.25-1.71-2.25-.56,0-1.01.21-1.36.62s-.52.9-.52,1.46v5.04h-1.89v-6.06c0-.75-.02-1.56-.07-2.43h1.66l.09,1.33h.05c.22-.41.55-.75.98-1.03.51-.32,1.08-.48,1.71-.48.79,0,1.45.26,1.97.77.65.63.98,1.57.98,2.81v5.09Z"/><path fill="#ffffff" d="M198.22,17h-2.08v4.13c0,1.05.37,1.57,1.1,1.57.34,0,.62-.03.84-.09l.05,1.43c-.37.14-.86.21-1.47.21-.75,0-1.33-.23-1.75-.68-.42-.45-.63-1.22-.63-2.29v-4.28h-1.24v-1.42h1.24v-1.56l1.85-.56v2.11h2.08v1.42Z"/><path fill="#ffffff" d="M208.21,24.08h-1.89v-4.83c0-1.52-.57-2.28-1.71-2.28-.88,0-1.47.44-1.8,1.32-.06.19-.09.41-.09.68v5.11h-1.89v-12.39h1.89v5.12h.04c.59-.93,1.45-1.4,2.55-1.4.78,0,1.43.26,1.94.77.64.64.96,1.59.96,2.85v5.05Z"/><path fill="#ffffff" d="M218.53,19.43c0,.34-.02.62-.07.86h-5.66c.02.84.3,1.48.82,1.92.48.4,1.1.59,1.85.59.84,0,1.6-.13,2.29-.4l.3,1.31c-.81.35-1.75.52-2.85.52-1.32,0-2.35-.39-3.1-1.16-.75-.78-1.13-1.81-1.13-3.12s.35-2.35,1.05-3.2c.73-.91,1.72-1.36,2.97-1.36s2.15.45,2.78,1.36c.5.72.75,1.61.75,2.67ZM216.72,18.94c.01-.56-.11-1.04-.37-1.45-.33-.52-.83-.79-1.5-.79-.62,0-1.12.26-1.5.77-.31.41-.5.9-.56,1.47h3.93Z"/></svg>